<?xml version="1.0" encoding="UTF-8" standalone="no"?>
<svg
   xmlns:dc="http://purl.org/dc/elements/1.1/"
   xmlns:cc="http://creativecommons.org/ns#"
   xmlns:rdf="http://www.w3.org/1999/02/22-rdf-syntax-ns#"
   xmlns:svg="http://www.w3.org/2000/svg"
   xmlns="http://www.w3.org/2000/svg"
   xmlns:sodipodi="http://sodipodi.sourceforge.net/DTD/sodipodi-0.dtd"
   xmlns:inkscape="http://www.inkscape.org/namespaces/inkscape"
   version="1.1"
   id="svg381"
   width="203.39752"
   height="152.48961"
   viewBox="0 0 203.39752 152.48961"
   sodipodi:docname="DWD.svg"
   inkscape:version="1.0.1 (3bc2e813f5, 2020-09-07)">
  <metadata
     id="metadata387">
    <rdf:RDF>
      <cc:Work
         rdf:about="">
        <dc:format>image/svg+xml</dc:format>
        <dc:type
           rdf:resource="http://purl.org/dc/dcmitype/StillImage" />
        <dc:title></dc:title>
      </cc:Work>
    </rdf:RDF>
  </metadata>
  <defs
     id="defs385" />
  <sodipodi:namedview
     pagecolor="#ffffff"
     bordercolor="#666666"
     borderopacity="1"
     objecttolerance="10"
     gridtolerance="10"
     guidetolerance="10"
     inkscape:pageopacity="0"
     inkscape:pageshadow="2"
     inkscape:window-width="1366"
     inkscape:window-height="700"
     id="namedview383"
     showgrid="false"
     inkscape:zoom="1"
     inkscape:cx="98.668148"
     inkscape:cy="69.184368"
     inkscape:window-x="0"
     inkscape:window-y="0"
     inkscape:window-maximized="1"
     inkscape:current-layer="g389" />
  <g
     inkscape:groupmode="layer"
     inkscape:label="Image"
     id="g389"
     transform="translate(-3.8318523,-7.8156322)">
    <path
       id="path401"
       style="fill:#800000"
       sodipodi:type="inkscape:offset"
       inkscape:radius="1.7982411"
       inkscape:original="M 58.167969 16.683594 L 32.357422 42.183594 L 6.546875 67.683594 L 32.357422 93.183594 L 58.167969 118.68359 L 58.435547 92.865234 C 58.58241 78.664291 58.58241 55.714291 58.435547 41.865234 L 58.167969 16.683594 z M 48.519531 35.183594 C 51.031445 35.183594 51.927158 35.734739 52.693359 37.75 C 54.031022 41.268308 53.976444 95.739403 52.632812 98.25 C 51.954924 99.516647 50.538933 100.18359 48.53125 100.18359 C 45.943233 100.18359 43.36253 98.118412 31.972656 86.933594 C 17.694678 72.912668 15.261756 69.652747 16.222656 65.824219 C 16.550961 64.516147 23.233781 57.086128 31.072266 49.314453 C 43.433372 37.058707 45.746431 35.183594 48.519531 35.183594 z "
       d="m 58.154297,14.884766 a 1.798421,1.798421 0 0 0 -1.25,0.519531 l -25.810547,25.5 -25.8105469,25.5 a 1.798421,1.798421 0 0 0 0,2.558594 l 25.8105469,25.5 25.810547,25.499999 a 1.798421,1.798421 0 0 0 3.0625,-1.25977 l 0.267578,-25.818354 c 0.14707,-14.220976 0.147086,-37.168942 0,-51.039063 L 59.966797,16.664062 a 1.798421,1.798421 0 0 0 -1.8125,-1.779296 z m -9.634766,22.097656 c 1.124438,0 1.616599,0.147702 1.798828,0.259766 0.18223,0.112063 0.373629,0.305529 0.69336,1.146484 -0.0537,-0.141242 0.0646,0.272567 0.130859,0.8125 0.06626,0.539933 0.132769,1.282304 0.19336,2.177734 0.121181,1.790861 0.224086,4.201355 0.304687,7.007813 0.161201,5.612915 0.23765,12.818525 0.230469,19.990234 -0.0072,7.171709 -0.09923,14.31315 -0.271485,19.798828 -0.08613,2.742839 -0.192213,5.073674 -0.316406,6.765625 -0.0621,0.845976 -0.130216,1.535977 -0.195312,2.009766 -0.0651,0.473789 -0.275564,0.889428 -0.04102,0.451172 -0.310227,0.579666 -0.906187,0.982422 -2.515625,0.982422 -0.81569,0 -1.586541,-0.219571 -3.855469,-2.035157 -2.268928,-1.815585 -5.757389,-5.115614 -11.443359,-10.699218 -7.12571,-6.997424 -11.279604,-11.31711 -13.408203,-14.169922 -1.0643,-1.426407 -1.603224,-2.463513 -1.830078,-3.226563 -0.226855,-0.76305 -0.209285,-1.267276 -0.02734,-1.992187 -0.08536,0.340115 -0.02341,0.07267 0.162109,-0.205078 0.185523,-0.277748 0.480951,-0.675509 0.859375,-1.152344 0.756848,-0.953671 1.849614,-2.230207 3.179688,-3.708985 2.660147,-2.957555 6.2727,-6.739511 10.169922,-10.603515 6.17329,-6.120672 9.843302,-9.643785 12.185547,-11.541016 2.342244,-1.897231 3.014854,-2.068359 3.996093,-2.068359 z"
       transform="translate(3.8318523,7.8156322)" />
    <path
       id="path399"
       style="fill:#800000"
       sodipodi:type="inkscape:offset"
       inkscape:radius="2.1058214"
       inkscape:original="M 126.6543 10.693359 C 126.09644 11.038136 124.74644 13.072119 123.6543 15.212891 C 121.75239 18.941021 121.66797 21.197794 121.66797 68.710938 C 121.66797 100.99298 121.30648 118.99124 120.63281 120.25 C 118.69276 123.87502 114.94832 122.61968 108.10547 116.04883 L 101.71484 109.91211 L 95.154297 116.04883 C 90.193684 120.68923 87.876986 122.18359 85.650391 122.18359 C 83.418449 122.18359 82.579641 121.63918 82.183594 119.93359 C 81.896239 118.69609 81.549687 95.408594 81.414062 68.183594 C 81.181655 21.530413 81.057758 18.45992 79.234375 14.785156 C 77.572281 11.435446 77.194789 11.153686 76.554688 12.785156 C 76.1449 13.829607 75.776941 43.192967 75.738281 78.037109 L 75.667969 141.39062 L 82.677734 135.17578 C 86.533368 131.7575 89.959031 128.52424 90.289062 127.99023 C 90.619094 127.45623 93.349916 125.44341 96.357422 123.51953 L 101.82422 120.02344 L 105.99609 122.77344 C 108.29042 124.28642 112.86797 128.03676 116.16797 131.10742 C 119.46797 134.17807 123.40547 137.77957 124.91797 139.11133 L 127.66797 141.5332 L 127.66797 75.798828 C 127.66797 31.613857 127.33609 10.27199 126.6543 10.693359 z "
       d="m 127.44531,8.7246094 c -0.59226,-0.2286502 -1.46106,-0.092575 -1.89843,0.1777344 -0.60404,0.3733125 -0.79006,0.6604799 -1.07618,1.0117187 -0.28612,0.3512385 -0.57217,0.7508265 -0.87109,1.2011715 -0.59785,0.900692 -1.23731,1.997852 -1.82031,3.140625 -0.5117,1.003024 -0.9987,2.158701 -1.3086,3.822266 -0.30989,1.663565 -0.49588,3.857716 -0.62695,7.386719 -0.26214,7.058005 -0.28125,19.488274 -0.28125,43.246094 0,16.13316 -0.0916,28.695327 -0.26562,37.361332 -0.087,4.333 -0.1941,7.69503 -0.32032,10.01953 -0.0631,1.16225 -0.13232,2.06793 -0.19922,2.67578 -0.0293,0.26601 -0.0555,0.44561 -0.0781,0.57617 -0.27675,0.46628 -0.50583,0.68652 -0.65625,0.74609 -0.16802,0.0666 -0.46344,0.12232 -1.16602,-0.11328 -1.40514,-0.47119 -3.98116,-2.24835 -7.3125,-5.44726 l -6.39062,-6.13672 a 2.106032,2.106032 0 0 0 -2.89844,-0.0176 l -6.560546,6.13672 c -2.443228,2.28551 -4.205478,3.75328 -5.480469,4.57617 -1.274991,0.82289 -1.941788,0.99023 -2.583984,0.99023 -0.944756,0 -1.294721,-0.15902 -1.275391,-0.14648 0.01933,0.0126 -0.0055,0.10721 -0.140625,-0.47461 0.05905,0.25431 0.01,0.0454 -0.0059,-0.16601 -0.01583,-0.2114 -0.03271,-0.52382 -0.05078,-0.91602 -0.03614,-0.78441 -0.07402,-1.89361 -0.111328,-3.27734 -0.07461,-2.76748 -0.149069,-6.63941 -0.21875,-11.32422 C 83.708295,94.403818 83.587314,81.780384 83.519531,68.173828 83.40332,44.845604 83.316722,32.422801 83.025391,25.28125 82.879725,21.710475 82.686395,19.454715 82.384766,17.751953 82.083136,16.049192 81.624618,14.86439 81.121094,13.849609 80.696688,12.994281 80.348994,12.31821 80.017578,11.757812 79.686163,11.197415 79.461065,10.745145 78.771484,10.230469 78.426694,9.9731305 77.844318,9.6782547 77.136719,9.7148438 76.42912,9.7514328 75.83908,10.131136 75.523438,10.445312 c -0.631285,0.628353 -0.736432,1.077747 -0.929688,1.570313 -0.161082,0.410558 -0.140355,0.497208 -0.162109,0.646484 -0.02175,0.149276 -0.03603,0.292709 -0.05078,0.457032 -0.0295,0.328644 -0.05461,0.733475 -0.08008,1.234375 -0.05092,1.001798 -0.09987,2.38007 -0.146484,4.111328 -0.09322,3.462515 -0.177857,8.324792 -0.251953,14.24414 C 73.754151,44.54768 73.65215,60.606329 73.632812,78.035156 L 73.5625,141.38867 a 2.106032,2.106032 0 0 0 3.501953,1.57813 l 7.009766,-6.21485 c 1.94278,-1.7224 3.776401,-3.3959 5.177734,-4.71875 0.700667,-0.66142 1.291082,-1.23429 1.746094,-1.69336 0.455012,-0.45906 0.642628,-0.5312 1.082031,-1.24218 -0.289246,0.468 -0.06624,0.0995 0.228516,-0.14844 0.294758,-0.24789 0.734082,-0.59118 1.259765,-0.97852 1.051367,-0.77468 2.457178,-1.73953 3.923829,-2.67773 l 4.314452,-2.75977 3.0293,1.99805 c 2.03384,1.3412 6.68341,5.1256 9.89844,8.11719 3.3104,3.08033 7.22572,6.66473 8.79101,8.04297 l 2.75,2.42187 a 2.106032,2.106032 0 0 0 3.49805,-1.58008 V 75.798828 c 0,-22.097758 -0.0834,-38.484244 -0.25196,-49.3125 -0.0843,-5.414128 -0.18911,-9.434553 -0.31836,-12.113281 -0.0646,-1.339364 -0.1326,-2.332864 -0.21874,-3.0625 -0.0431,-0.364818 -0.0774,-0.641846 -0.17774,-1.003906 -0.0501,-0.181031 -0.0634,-0.3689259 -0.36523,-0.7988285 -0.15093,-0.2149513 -0.40384,-0.5545529 -0.9961,-0.7832031 z"
       transform="translate(3.8318523,7.8156322)" />
    <path
       id="path403"
       style="fill:#800000"
       transform="translate(3.8318523,7.8156322)"
       d="m 145.63867,15.03125 c -1.33361,0.08248 -3.11502,1.457067 -3.56445,2.585938 -0.47718,1.198526 -0.2782,1.09631 -0.31055,1.412109 -0.0323,0.315798 -0.0577,0.65769 -0.082,1.070312 -0.0487,0.825245 -0.0918,1.916839 -0.13476,3.277344 -0.086,2.72101 -0.16428,6.503391 -0.23243,11.095703 -0.13629,9.184625 -0.23063,21.59594 -0.25,35.039063 l -0.0703,48.833981 a 3.6745541,3.6745541 0 0 0 6.21875,2.65625 l 18.52734,-17.78711 c 15.9236,-15.287588 21.31698,-20.917281 30.55274,-31.890621 0.5007,-0.594909 1.21703,-1.568441 1.42773,-2.945313 0.21071,-1.376871 -0.18656,-2.665535 -0.67382,-3.65039 -0.97453,-1.969711 -2.45258,-3.713316 -5.10157,-6.951172 -3.62847,-4.435065 -14.41564,-15.425184 -24.67969,-25.302735 -6.4648,-6.221368 -10.85849,-10.363297 -13.90039,-13.019531 -1.52094,-1.328117 -2.69143,-2.281823 -3.72851,-2.996094 -1.03708,-0.71427 -1.64902,-1.573019 -3.99805,-1.427734 z m 9.34375,23.951172 c -0.0486,0.07533 0.59049,0.08568 2.8418,1.894531 2.58373,2.075947 6.41379,5.714689 11.90625,11.173828 9.04182,8.986968 13.02825,13.751437 13.37891,15.306641 0.17532,0.777602 0.147,1.13228 -0.8711,2.675781 -1.0181,1.543502 -3.05442,3.800928 -5.87305,6.878906 -9.33477,10.193728 -16.07028,16.42143 -19.11914,18.292969 -1.29984,0.797907 -1.84158,0.881822 -2.18945,0.96875 -0.0522,-0.426936 -0.1077,-0.876126 -0.16016,-1.544922 -0.13633,-1.738265 -0.25599,-4.171025 -0.35156,-7.02539 -0.19114,-5.708731 -0.28992,-13.130637 -0.29297,-20.515625 -0.003,-7.384989 0.0891,-14.743504 0.27539,-20.322266 0.0932,-2.789381 0.21206,-5.14128 0.34571,-6.773437 0.0372,-0.454139 0.0719,-0.682424 0.10937,-1.009766 z" />
    <path
       style="fill:#050b1f;stroke:none"
       d="m 119.88196,122.93222 c -3.531,-3.531 -9.375,-12.069 -15,-11.534 -5.338796,0.508 -10.461796,7.996 -13.999996,11.534 V 30.932224 c -6e-4,-8.6268 -1.6286,-12.8624 -8.0008,-18.98071 -1.6224,-1.55783 -4.1092,-4.5030238 -6.6813,-4.0979948 -3.046,0.479645 -2.3136,5.9848748 -2.3179,8.0787048 v 24 91.999996 c 0,6.999 -0.0475,14.001 8e-4,21 0.0149,2.16 -0.4613,6.421 2.2777,7.248 2.9742,0.899 5.9041,-3.288 7.7609,-4.967 4.9023,-4.433 9.3359,-9.223 14.0416,-13.857 1.8483,-1.82 4.244996,-4.926 6.957996,-5.388 2.867,-0.487 5.12,2.2 6.961,3.973 5.09,4.901 9.955,10.038 15,14.986 1.809,1.774 4.75,5.545 7.682,5.084 1.894,-0.299 2.122,-2.593 2.259,-4.098 0.389,-4.266 0.059,-8.699 0.059,-12.981 V 85.932221 25.932224 c 0,-4.6105 0.36,-9.38818 -0.059,-13.98071 -0.137,-1.5049 -0.365,-3.7997498 -2.259,-4.0979948 -2.574,-0.405395 -5.056,2.5418248 -6.682,4.0979948 -6.511,6.23191 -8,10.19881 -8,18.98071 v 91.999996 m 24.603,-109.824066 c -1.837,1.0026 -1.566,4.09967 -1.598,5.82487 -0.114,5.9951 -0.005,12.0029 -0.005,17.9992 v 74.999996 c 0,6.646 -0.274,13.357 0.019,19.995 0.11,2.478 0.626,6.117 4.04,4.829 5.60101,-2.113 10.78501,-9.668 14.94101,-13.824 l 33,-32.999999 c 3.454,-3.454 13.448,-10.3701 12.248,-15.999997 -1.183,-5.5537 -9.4,-11.1524 -13.248,-15 l -34,-34 c -3.28,-3.2795 -6.43,-6.88 -9.99901,-9.84723 -1.35,-1.12259 -3.496,-3.0146 -5.398,-1.97684 m -80.661596,1 c -5.6014,2.11342 -10.7856,9.66817 -14.9414,13.82407 l -33,33 c -3.32076,3.3208 -13.7054296,10.5382 -11.8240696,15.999997 1.922,5.5798 9.7382696,10.9142 13.8240696,15 l 33,32.999999 c 3.2795,3.28 6.4303,6.88 9.9992,9.847 1.3503,1.123 3.4954,3.015 5.3974,1.977 1.8375,-1.002 1.5662,-4.1 1.5988,-5.825 0.1133,-5.995 0.005,-12.003 0.005,-17.999 V 38.932224 c 0,-6.6456 0.2736,-13.3565 -0.0193,-19.9954 -0.1097,-2.47732 -0.626,-6.11669 -4.0397,-4.82867 m 16.0586,2.82407 c 7.7105,8.1571 6,17.4466 6,28 v 55.999996 c 0,6.999 -0.0474,14.001 8e-4,21 0.0165,2.404 -0.3873,6.581 2.3171,7.824 2.1033,0.967 4.1595,-0.717 5.6821,-1.977 3.9325,-3.253 7.392196,-7.239 10.999996,-10.847 h 1 c 3.608,3.608 7.067,7.594 11,10.847 1.523,1.26 3.579,2.944 5.682,1.977 2.432,-1.118 2.272,-4.619 2.313,-6.824 0.132,-6.995 0.005,-14.004 0.005,-21 V 41.932224 c 0,-9.7871 -1.851,-18.6905 7,-25 V 150.93222 l -17,-15.999 -9,-6.369 -8.713696,5.369 -18.2863,16.999 v -93.999996 -26 l 1,-14 m -17,6 V 127.93222 l -20,-19 L 9.8819644,75.932224 v -1 l 32.9999996,-33 20,-19 m 85.999996,0 39.00001,38 11.793,14 -11.793,13.999997 -40.00001,38.999999 v -72.999996 -20 l 1,-12 m -99.000796,21.0324 c -3.5114,1.7015 -6.287,5.2566 -8.9992,7.9676 -4.9996,4.9974 -10.0445,9.9544 -14.9954,15 -2.3075,2.3517 -5.8892,5.3153 -5.5386,9 0.3477,3.652897 4.1422,6.590897 6.5348,8.999997 5.9701,6.0115 11.8774,12.1238 17.9992,17.980699 2.3654,2.263 5.9917,5.9993 9.6821,4.3963 4.0769,-1.7703 2.3179,-11.811699 2.3179,-15.376999 V 52.932224 c -0.002,-4.5858 -0.0509,-12.3352 -7.0008,-8.9676 m 106.603806,0.0147 c -3.217,2.3273 -1.603,11.4742 -1.603,14.9529 v 37.999997 c 0,4.592399 -0.304,13.897999 7.001,9.391999 8.531,-5.2616 15.987,-15.250899 22.994,-22.391999 2.536,-2.5846 6.496,-5.9067 5.343,-9.999997 -1.012,-3.5945 -4.811,-6.4674 -7.338,-9 -5.653,-5.6648 -11.217,-11.4485 -17,-16.9807 -2.094,-2.0031 -6.148,-6.3224 -9.397,-3.9722 m -104.603006,5.9529 v 50.999996 l -26,-24.999996 v -1 l 26,-25 m 109.000006,1 24,24 v 1 l -25,23.999997 V 66.932224 Z"
       id="path395" />
  </g>
</svg>
